<svg xmlns="http://www.w3.org/2000/svg" xmlns:xlink="http://www.w3.org/1999/xlink" width="128" height="128" viewBox="0 0 33.867 33.867" id="consultation">
  <defs>
    <linearGradient id="a">
      <stop offset="0" stop-color="#d90947"></stop>
      <stop offset="1" stop-color="#ff585b"></stop>
    </linearGradient>
    <linearGradient id="b">
      <stop offset="0" stop-color="#f5f8ff"></stop>
      <stop offset="1" stop-color="#a0c9ff"></stop>
    </linearGradient>
    <linearGradient xlink:href="#a" id="f" x1="8.087" x2="8.087" y1="18.124" y2="26.966" gradientTransform="matrix(1 0 0 -1 3.247 33.073)" gradientUnits="userSpaceOnUse"></linearGradient>
    <linearGradient id="c">
      <stop offset="0" stop-color="#0cc8ef"></stop>
      <stop offset="1" stop-color="#047afa"></stop>
    </linearGradient>
    <linearGradient xlink:href="#b" id="e" x1="42.941" x2="42.941" y1="9" y2="83.357" gradientTransform="translate(-1.323 -1.323)scale(.26458)" gradientUnits="userSpaceOnUse"></linearGradient>
    <linearGradient xlink:href="#c" id="d" x1="13.965" x2="68.965" y1="83.782" y2="33.782" gradientTransform="matrix(-.26458 0 0 .26458 35.18 7.995)" gradientUnits="userSpaceOnUse"></linearGradient>
  </defs>
  <path fill="url(#d)" d="M30.153 10.376a2.64 2.64 0 0 1 2.646 2.646v14.685a2.64 2.64 0 0 1-2.646 2.646h-1.152l-1.007 1.536c-.804 1.226-1.88 1.226-2.684 0l-1.008-1.536H15.47a2.64 2.64 0 0 1-2.646-2.646V13.022a2.64 2.64 0 0 1 2.646-2.646z" paint-order="markers fill stroke"></path>
  <path fill="url(#e)" d="M3.704 1.058a2.64 2.64 0 0 0-2.646 2.646V18.39a2.64 2.64 0 0 0 2.646 2.645h1.152l1.008 1.537c.804 1.226 1.88 1.226 2.683 0l1.008-1.537h12.538a2.64 2.64 0 0 0 2.646-2.645V3.704a2.64 2.64 0 0 0-2.646-2.646z" paint-order="markers fill stroke"></path>
  <path fill="#6e98f5" d="M1.39 3.675v.263h.529v-.263zm1.322 0v.263h.53v-.263zm1.324 0v.263h.53v-.263zm1.322 0v.263h.53v-.263zm1.323 0v.263h.529v-.263zm1.324 0v.263h.53v-.263zm1.322 0v.263h.53v-.263zm1.322 0v.263h.53v-.263zm1.325 0v.263h.529v-.263zm1.322 0v.263h.53v-.263zm1.322 0v.263h.53v-.263zm1.324 0v.263h.53v-.263zm1.323 0v.263h.529v-.263zm1.322 0v.263h.53v-.263zm1.324 0v.263h.53v-.263zm1.322 0v.263h.53v-.263zm1.323 0v.263h.529v-.263zm1.324 0v.263h.527v-.263z" color="#000" font-family="sans-serif" font-weight="400" overflow="visible" paint-order="markers fill stroke" style="line-height:normal;font-variant-ligatures:normal;font-variant-position:normal;font-variant-caps:normal;font-variant-numeric:normal;font-variant-alternates:normal;font-variant-east-asian:normal;font-feature-settings:normal;font-variation-settings:normal;text-indent:0;text-align:start;text-decoration-line:none;text-decoration-style:solid;text-decoration-color:#000;text-transform:none;text-orientation:mixed;shape-padding:0;shape-margin:0;inline-size:0;isolation:auto;mix-blend-mode:normal"></path>
  <path fill="url(#f)" d="M12.627 5.75c-.733 0-1.231.595-1.323 1.322l-.234 1.853-1.852.198c-.73.079-1.323.59-1.323 1.323v.41c0 .732.597 1.221 1.323 1.322l1.852.257.198 1.852c.078.73.59 1.323 1.323 1.323h.615c.733 0 1.214-.598 1.323-1.323l.198-1.852 1.852-.257c.726-.1 1.323-.59 1.323-1.323v-.409c0-.733-.594-1.244-1.323-1.323l-1.852-.198-.234-1.853c-.092-.727-.59-1.322-1.323-1.322z" paint-order="markers fill stroke"></path>
  <path fill="#6e98f5" d="M1.39 18.174v.264h.529v-.264zm1.322 0v.264h.53v-.264zm1.324 0v.264h.53v-.264zm1.322 0v.264h.53v-.264zm1.323 0v.264h.529v-.264zm1.324 0v.264h.53v-.264zm1.322 0v.264h.53v-.264zm1.322 0v.264h.53v-.264zm1.325 0v.264h.529v-.264zm1.322 0v.264h.53v-.264zm1.322 0v.264h.53v-.264zm1.324 0v.264h.53v-.264zm1.323 0v.264h.529v-.264zm1.322 0v.264h.53v-.264zm1.324 0v.264h.53v-.264zm1.322 0v.264h.53v-.264zm1.323 0v.264h.529v-.264zm1.324 0v.264h.527v-.264z" color="#000" font-family="sans-serif" font-weight="400" overflow="visible" paint-order="markers fill stroke" style="line-height:normal;font-variant-ligatures:normal;font-variant-position:normal;font-variant-caps:normal;font-variant-numeric:normal;font-variant-alternates:normal;font-variant-east-asian:normal;font-feature-settings:normal;font-variation-settings:normal;text-indent:0;text-align:start;text-decoration-line:none;text-decoration-style:solid;text-decoration-color:#000;text-transform:none;text-orientation:mixed;shape-padding:0;shape-margin:0;inline-size:0;isolation:auto;mix-blend-mode:normal"></path>
</svg>
